<svg width="187" height="36" viewBox="0 0 187 36" fill="none" xmlns="http://www.w3.org/2000/svg">
<path fill-rule="evenodd" clip-rule="evenodd" d="M66.9361 15.2466C67.7257 13.7578 68.1204 12.0466 68.1204 10.1129C68.1204 8.17923 67.7257 6.47656 66.9361 5.00491C66.1465 3.53327 65.048 2.38675 63.6405 1.56536C62.2501 0.726866 60.6281 0.307617 58.7743 0.307617C56.9377 0.307617 55.3156 0.726866 53.9081 1.56536C52.5178 2.38675 51.4278 3.54182 50.6383 5.03058C49.8487 6.50223 49.4539 8.2049 49.4539 10.1386C49.4539 12.0723 49.8401 13.7749 50.6125 15.2466C51.4021 16.7182 52.492 17.8733 53.8824 18.7118C55.2899 19.5332 56.9119 19.9439 58.7486 19.9439C60.6023 19.9439 62.233 19.5332 63.6405 18.7118C65.048 17.8733 66.1465 16.7182 66.9361 15.2466ZM63.1255 7.00704C63.5203 7.86265 63.7177 8.89794 63.7177 10.1129C63.7177 11.3108 63.5203 12.346 63.1255 13.2188C62.7307 14.0915 62.1643 14.7674 61.4262 15.2466C60.7053 15.7086 59.8299 15.9396 58.8 15.9396C57.7702 15.9396 56.8862 15.7086 56.1481 15.2466C55.41 14.7845 54.8436 14.1172 54.4488 13.2444C54.054 12.3717 53.8566 11.3279 53.8566 10.1129C53.8566 8.89794 54.054 7.86265 54.4488 7.00704C54.8436 6.13432 55.41 5.46694 56.1481 5.00491C56.8862 4.54288 57.7702 4.31187 58.8 4.31187C59.8299 4.31187 60.7053 4.54288 61.4262 5.00491C62.1643 5.46694 62.7307 6.13432 63.1255 7.00704ZM34.9085 19.1726C34.9085 19.4403 34.6915 19.6574 34.4237 19.6574H31.0298C30.762 19.6574 30.5449 19.4403 30.5449 19.1726V1.23327C30.5449 0.965502 30.762 0.748429 31.0298 0.748429H34.4237C34.6915 0.748429 34.9085 0.965502 34.9085 1.23327V7.53627C34.9085 7.80404 35.1256 8.02111 35.3934 8.02111H41.6964C41.9641 8.02111 42.1812 7.80404 42.1812 7.53627V1.23327C42.1812 0.965501 42.3983 0.748429 42.6661 0.748429H46.06C46.3277 0.748429 46.5448 0.965502 46.5448 1.23327V19.1726C46.5448 19.4403 46.3277 19.6574 46.06 19.6574H42.6661C42.3983 19.6574 42.1812 19.4403 42.1812 19.1726V12.8696C42.1812 12.6018 41.9641 12.3847 41.6964 12.3847H35.3934C35.1256 12.3847 34.9085 12.6018 34.9085 12.8696V19.1726ZM75.1782 19.1726C75.1782 19.4403 74.9611 19.6574 74.6933 19.6574H71.5144C71.2466 19.6574 71.0295 19.4403 71.0295 19.1726V1.23327C71.0295 0.965502 71.2466 0.748429 71.5144 0.748429H74.8487C75.0475 0.748429 75.2262 0.869878 75.2995 1.05479L80.6523 14.5741C80.7331 14.7782 81.0218 14.7784 81.1029 14.5745L86.4805 1.05409C86.5539 0.869547 86.7324 0.748429 86.931 0.748429H90.4233C90.6911 0.748429 90.9082 0.965502 90.9082 1.23327V19.1726C90.9082 19.4403 90.6911 19.6574 90.4233 19.6574H87.1387C86.871 19.6574 86.6539 19.4403 86.6539 19.1726V15.997V13.4324C86.6539 12.7589 86.6625 12.1976 86.6798 11.7486C86.7086 10.9998 86.7551 10.2631 86.8611 9.52082L82.9162 19.3531C82.8424 19.5369 82.6643 19.6574 82.4662 19.6574H79.2889C79.0904 19.6574 78.912 19.5365 78.8385 19.3521L74.9191 9.52082C75.04 10.2289 75.1091 10.9974 75.1263 11.8263C75.1609 12.6553 75.1782 13.5965 75.1782 14.6499V19.1726ZM106.423 19.6574C106.691 19.6574 106.908 19.4403 106.908 19.1726V16.6113C106.908 16.3436 106.691 16.1265 106.423 16.1265H98.9601V12.3847H105.547C105.815 12.3847 106.032 12.1676 106.032 11.8999V8.50596C106.032 8.23818 105.815 8.02111 105.547 8.02111H98.9601V4.72846H106.423C106.691 4.72846 106.908 4.51139 106.908 4.24362V1.23327C106.908 0.965502 106.691 0.748429 106.423 0.748429H95.2718C95.004 0.748429 94.7869 0.965502 94.7869 1.23327V19.1726C94.7869 19.4403 95.004 19.6574 95.2718 19.6574H106.423ZM110.544 4.72846H115.597V19.1726C115.597 19.4403 115.815 19.6574 116.082 19.6574H119.309C119.577 19.6574 119.794 19.4403 119.794 19.1726V4.72846H124.847C125.115 4.72846 125.332 4.51139 125.332 4.24362V1.23327C125.332 0.965502 125.115 0.748429 124.847 0.748429H110.544C110.277 0.748429 110.06 0.965502 110.06 1.23327V4.24362C110.06 4.51139 110.277 4.72846 110.544 4.72846ZM140.12 19.6574C140.388 19.6574 140.605 19.4403 140.605 19.1726V16.6113C140.605 16.3436 140.388 16.1265 140.12 16.1265H132.722V12.3847H139.309C139.577 12.3847 139.794 12.1676 139.794 11.8999V8.50596C139.794 8.23818 139.577 8.02111 139.309 8.02111H132.722V4.72846H140.12C140.388 4.72846 140.605 4.51139 140.605 4.24362V1.23327C140.605 0.965502 140.388 0.748429 140.12 0.748429H128.969C128.701 0.748429 128.484 0.965502 128.484 1.23327V19.1726C128.484 19.4403 128.701 19.6574 128.969 19.6574H140.12ZM148.373 19.3418C148.302 19.5315 148.121 19.6574 147.918 19.6574H144.451C144.114 19.6574 143.88 19.3216 143.996 19.0051L150.599 1.06581C150.669 0.875124 150.851 0.748429 151.054 0.748429H154.469C154.673 0.748429 154.855 0.875866 154.925 1.06735L161.459 19.0066C161.574 19.3229 161.34 19.6574 161.003 19.6574H157.505C157.302 19.6574 157.12 19.5302 157.05 19.339L155.819 15.9711H149.628L148.373 19.3418ZM152.218 8.35511L150.845 12.3847H154.628L153.255 8.35511C153.151 8.02698 153.047 7.69022 152.944 7.34483C152.873 7.10917 152.818 6.90165 152.78 6.72226C152.771 6.68159 152.702 6.68159 152.693 6.72226C152.655 6.90165 152.6 7.10917 152.529 7.34483C152.443 7.67295 152.339 8.00971 152.218 8.35511ZM168.455 19.6574C168.722 19.6574 168.939 19.4403 168.939 19.1726V14.6499C168.939 13.5965 168.922 12.6553 168.888 11.8263C168.87 10.9974 168.801 10.2289 168.68 9.52082L172.6 19.3521C172.673 19.5365 172.852 19.6574 173.05 19.6574H176.227C176.426 19.6574 176.604 19.5369 176.677 19.3531L180.622 9.52082C180.516 10.2631 180.47 10.9998 180.441 11.7486C180.424 12.1976 180.415 12.7589 180.415 13.4324V15.997V19.1726C180.415 19.4403 180.632 19.6574 180.9 19.6574H184.241C184.509 19.6574 184.726 19.4403 184.726 19.1726V1.23327C184.726 0.965502 184.509 0.748429 184.241 0.748429H180.692C180.494 0.748429 180.315 0.869547 180.242 1.05409L174.864 14.5745C174.783 14.7784 174.494 14.7782 174.414 14.5741L169.061 1.05479C168.988 0.869877 168.809 0.748429 168.61 0.748429H165.332C165.064 0.748429 164.847 0.965502 164.847 1.23327V19.1726C164.847 19.4403 165.064 19.6574 165.332 19.6574H168.455Z" fill="#1F402A"/>
<path d="M13.8181 0.74707H25.9484C26.2162 0.74707 26.4333 0.964143 26.4333 1.23192V5.11066H13.8181V0.74707Z" fill="#1F402A"/>
<path d="M13.8181 8.01974H26.4333V12.3777H13.8181V8.01974Z" fill="#1F402A"/>
<path d="M0 15.2924H26.4333V19.1712C26.4333 19.439 26.2162 19.656 25.9484 19.656H6.14201L0.771131 23.5855C0.450816 23.8199 0 23.5911 0 23.1942V15.2924Z" fill="#1F402A"/>
<path d="M5.81304 0.928199C5.89095 0.686694 6.23019 0.686694 6.3081 0.928199L7.56038 4.8099C7.59522 4.91791 7.69515 4.99103 7.80791 4.99103H11.8604C12.1125 4.99103 12.2173 5.31598 12.0134 5.46523L8.73484 7.86426C8.64362 7.93101 8.60545 8.04933 8.64029 8.15733L9.89257 12.039C9.97048 12.2805 9.69604 12.4814 9.49206 12.3321L6.21355 9.93308C6.12233 9.86633 5.99881 9.86633 5.90759 9.93308L2.62908 12.3321C2.4251 12.4814 2.15065 12.2805 2.22856 12.039L3.48084 8.15733C3.51569 8.04933 3.47752 7.93101 3.38629 7.86426L0.107786 5.46523C-0.096191 5.31598 0.00863933 4.99103 0.260768 4.99103H4.31323C4.42598 4.99103 4.52591 4.91791 4.56076 4.8099L5.81304 0.928199Z" fill="#1F402A"/>
<path d="M134.693 24.2627V33.0877H136.47V29.9204H137.728C139.154 29.9204 139.48 30.2226 139.843 31.5524L140.266 33.0877H142.164L141.693 31.5282C141.378 30.4765 141.088 29.8841 140.568 29.5698C140.327 29.4247 140.049 29.3401 139.686 29.2917C141.1 29.0137 141.959 28.0345 141.959 26.8256C141.959 25.2661 140.858 24.2627 138.803 24.2627H134.693ZM138.38 25.798C139.638 25.798 140.206 26.2937 140.206 27.1641C140.206 28.0345 139.577 28.6268 138.344 28.6268H136.47V25.798H138.38Z" fill="#1F402A"/>
<path d="M142.747 29.739C142.747 31.7458 143.956 33.2086 146.301 33.2086C147.788 33.2086 148.755 32.5558 149.383 31.5403L147.897 30.7545C147.498 31.4557 147.063 31.7458 146.277 31.7458C145.225 31.7458 144.596 31.1776 144.451 30.1984H149.565V29.5456C149.565 27.7927 148.537 26.1849 146.24 26.1849C144.077 26.1849 142.747 27.829 142.747 29.739ZM146.24 27.6355C147.341 27.6355 147.788 28.2763 147.836 29.1104H144.476C144.645 28.1675 145.261 27.6355 146.24 27.6355Z" fill="#1F402A"/>
<path d="M151.617 33.0877H153.273V28.5664H155.171V27.1157H153.273V26.4871C153.273 25.8947 153.442 25.6529 153.998 25.6529H155.171V24.2627H153.962C152.451 24.2627 151.617 24.7946 151.617 26.5838V27.1157H150.166V28.5664H151.617V33.0877Z" fill="#1F402A"/>
<path d="M158.203 24.2627H156.438V33.0877H158.203V24.2627Z" fill="#1F402A"/>
<path d="M159.605 29.739C159.605 31.7458 160.814 33.2086 163.159 33.2086C164.646 33.2086 165.613 32.5558 166.241 31.5403L164.754 30.7545C164.355 31.4557 163.92 31.7458 163.134 31.7458C162.083 31.7458 161.454 31.1776 161.309 30.1984H166.423V29.5456C166.423 27.7927 165.395 26.1849 163.098 26.1849C160.934 26.1849 159.605 27.829 159.605 29.739ZM163.098 27.6355C164.198 27.6355 164.646 28.2763 164.694 29.1104H161.333C161.503 28.1675 162.119 27.6355 163.098 27.6355Z" fill="#1F402A"/>
<path d="M166.558 33.0877H168.516L170.16 30.7908L171.816 33.0877H173.75L171.188 29.6302L173.666 26.3178H171.72L170.184 28.4576L168.649 26.3178H166.667L169.145 29.6302L166.558 33.0877Z" fill="#1F402A"/>
<path d="M174.336 33.0877H175.255L176.126 30.8996H180.695L181.577 33.0877H182.496L178.894 24.2627H177.951L176.144 28.6752L174.336 33.0877ZM177.903 26.4509L178.41 25.0485L178.918 26.4388L180.441 30.2589H176.379L177.903 26.4509Z" fill="#1F402A"/>
<path d="M183.868 33.0877H184.739V24.2627H183.868V33.0877Z" fill="#1F402A"/>
<path d="M121.916 29.9248C121.916 27.7794 120.766 26.8062 119.373 26.8062C118.399 26.8062 117.67 27.2154 117.249 28.1001V24.2627H115.635V33.0655H117.238V31.8601C117.614 32.6563 118.267 33.1318 119.24 33.1318C120.711 33.1318 121.916 32.0038 121.916 29.9248ZM120.268 29.969C120.268 31.0638 119.826 31.8158 118.698 31.8158C117.548 31.8158 117.128 31.0749 117.128 29.969C117.128 28.8742 117.603 28.089 118.698 28.089C119.826 28.089 120.268 28.8521 120.268 29.969Z" fill="#1F402A"/>
<path d="M122.289 26.8726L124.866 32.9991L123.793 35.4542H125.474L129.035 26.8726H127.41L125.917 30.71L125.707 31.3624L125.508 30.71L123.948 26.8726H122.289Z" fill="#1F402A"/>
</svg>
